/* XPM */
static char *_a33ff8f90584f9881cfec7debd5d1aeCn52PukEmvGHqsCG[] = {
/* columns rows colors chars-per-pixel */
"64 64 256 2 ",
"   c #030303",
".  c #0D0B0C",
"X  c #070707",
"o  c #150C0A",
"O  c #17120D",
"+  c #191615",
"@  c #100E13",
"#  c #231A15",
"$  c #231E1B",
"%  c #2A1E1A",
"&  c #291B13",
"*  c #24150E",
"=  c #27231D",
"-  c #34261D",
";  c #2F3C12",
":  c #2A2725",
">  c #352B27",
",  c #2F312D",
"<  c #38342C",
"1  c #333533",
"2  c #353935",
"3  c #3B3A35",
"4  c #3B3D3A",
"5  c #3B3534",
"6  c #333131",
"7  c #1D1A2C",
"8  c #45372B",
"9  c #473C36",
"0  c #533B2C",
"q  c #753D30",
"w  c #3D413D",
"e  c #3D4A2A",
"r  c #325822",
"t  c #42423C",
"y  c #4B463B",
"u  c #584639",
"i  c #5B5D3B",
"p  c #494E2B",
"a  c #6C4F39",
"s  c #677334",
"d  c #5A6433",
"f  c #323945",
"g  c #301C41",
"h  c #4A1B50",
"j  c #442D4C",
"k  c #394C4D",
"l  c #2F7250",
"z  c #0D6770",
"x  c #337275",
"c  c #175E6C",
"v  c #4B4B44",
"b  c #474845",
"n  c #554B46",
"m  c #4C524D",
"M  c #52524D",
"N  c #5B5549",
"B  c #545551",
"V  c #5B5A54",
"C  c #5C5E5A",
"Z  c #585855",
"A  c #4D4F54",
"S  c #654D44",
"D  c #675648",
"F  c #785947",
"G  c #665D56",
"H  c #735D54",
"J  c #5E635A",
"K  c #4C634D",
"L  c #666548",
"P  c #75744B",
"I  c #62635D",
"U  c #6A665A",
"Y  c #776757",
"T  c #737152",
"R  c #5B5366",
"E  c #6B546E",
"W  c #5B6865",
"Q  c #527571",
"!  c #646562",
"~  c #656964",
"^  c #6B6B64",
"/  c #6C6D6A",
"(  c #686867",
")  c #756C64",
"_  c #6B736A",
"`  c #73736C",
"'  c #797469",
"]  c #697775",
"[  c #747B74",
"{  c #7B7C74",
"}  c #787977",
"|  c #6C6D78",
" . c #AC6727",
".. c #D3651B",
"X. c #8C5A48",
"o. c #84634D",
"O. c #876756",
"+. c #86745C",
"@. c #957057",
"#. c #A8755B",
"$. c #846C63",
"%. c #877767",
"&. c #977866",
"*. c #847C76",
"=. c #977B70",
"-. c #A67967",
";. c #B77269",
":. c #9B4F7A",
">. c #E67348",
",. c #37886B",
"<. c #7A8A49",
"1. c #51847C",
"2. c #7B847B",
"3. c #6C8E71",
"4. c #5EA664",
"5. c #6E8036",
"6. c #938828",
"7. c #FA900C",
"8. c #E9A721",
"9. c #FCCD0B",
"0. c #FCD233",
"q. c #868D51",
"w. c #96866A",
"e. c #83837D",
"r. c #88877A",
"t. c #968779",
"y. c #8E906A",
"u. c #A98673",
"i. c #B58B78",
"p. c #AA8F74",
"a. c #ABA579",
"s. c #A2955E",
"d. c #D19150",
"f. c #C8946F",
"g. c #CDA772",
"h. c #E99F5D",
"j. c #FFD05D",
"k. c #09778D",
"l. c #337B8C",
"z. c #4D7B8A",
"x. c #797D83",
"c. c #CE4E90",
"v. c #04879A",
"b. c #3B858C",
"n. c #0F8CA8",
"m. c #488488",
"M. c #588588",
"N. c #4F8C94",
"B. c #7C8985",
"V. c #709493",
"C. c #5096AD",
"Z. c #6D99A8",
"A. c #60A8AE",
"S. c #10ACD4",
"D. c #65B8D2",
"F. c #3CD0F6",
"G. c #0AC1E0",
"H. c #49CFF0",
"J. c #69C7DA",
"K. c #8B8B84",
"L. c #878985",
"P. c #958C84",
"I. c #8C938C",
"U. c #889389",
"Y. c #98958C",
"T. c #8A9594",
"R. c #989A95",
"E. c #8A8B93",
"W. c #A69787",
"Q. c #B69786",
"!. c #A59B94",
"~. c #AB8F8B",
"^. c #98A399",
"/. c #8BA998",
"(. c #A6A599",
"). c #B5A899",
"_. c #B2A98D",
"`. c #8C96A6",
"'. c #99A5A6",
"]. c #91AFAC",
"[. c #ACACA4",
"{. c #ACACAB",
"}. c #A5A8A5",
"|. c #B6ACA7",
" X c #ACB3AB",
".X c #B6B4A9",
"XX c #ABB4B3",
"oX c #B4B5B3",
"OX c #BBBCBC",
"+X c #B7B9B6",
"@X c #ABAEB3",
"#X c #B094BC",
"$X c #C79985",
"%X c #C4A998",
"&X c #CEA890",
"*X c #E7B192",
"=X c #C4B7A7",
"-X c #C5BBB5",
";X c #CBB4AE",
":X c #E59A9A",
">X c #BBC2BB",
",X c #B7C7AE",
"<X c #A9C7A5",
"1X c #D3C690",
"2X c #C3C3BD",
"3X c #C8C6B8",
"4X c #D7C8BA",
"5X c #CFC8AD",
"6X c #ECD2AB",
"7X c #F0D99F",
"8X c #BCBEC3",
"9X c #AABAC6",
"0X c #C9BEC8",
"qX c #BCC4C2",
"wX c #A6CDC7",
"eX c #A0D1E6",
"rX c #C3C4C3",
"tX c #CACAC5",
"yX c #CBCCCB",
"uX c #C6C8C8",
"iX c #D4CCC6",
"pX c #CCD2C9",
"aX c #D7D4CB",
"sX c #CACBD3",
"dX c #CED2D4",
"fX c #CAD5D6",
"gX c #D3D4D4",
"hX c #D4DADC",
"jX c #DBDCDC",
"kX c #D8D8D5",
"lX c #D3CFD0",
"zX c #E3D8C8",
"xX c #E5DDD6",
"cX c #DCE2DB",
"vX c #E7E4DA",
"bX c #F5EED9",
"nX c #D6DEE1",
"mX c #DCDEE1",
"MX c #DAD7E0",
"NX c #E2DEE3",
"BX c #DCE3E4",
"VX c #D9E2E6",
"CX c #E4E5E3",
"ZX c #E9E7E3",
"AX c #E7E8E2",
"SX c #E5E8E6",
"DX c #E9E9E5",
"FX c #EAEAE5",
"GX c #E4E6E9",
"HX c #ECECEA",
"JX c #E6EAEB",
"KX c #F7F4E7",
"LX c #ECEDF2",
"PX c #ECF1F3",
"IX c #F5F6F7",
"UX c #F2EEE9",
/* pixels */
"hXnXnXVXVXVXVXVXVXVXVXBXVXVXVXBXBXBXBXBXCXCXCXCXSXSXSXSXFXFXSXSXFXFXFXFXFXFXFXFXHXHXHXHXFXFXFXFXAXAXAXAXFXFXFXFXFXFXZXCXCXZXFXFX",
"hXhXhXhXnXVXVXVXnXnXVXVXVXnXnXVXCXBXBXBXBXBXCXCXCXCXSXSXSXSXSXSXFXSXFXSXFXFXFXFXFXFXFXFXFXFXAXAXAXAXAXZXZXFXFXCXFXFXZXZXZXFXFXFX",
"hXhXhXVXVXVXnXnXnXnXVXVXVXVXBXGXBXBXBXBXBXBXCXCXCXCXCXCXCXCXCXSXSXSXCXCXCXCXAXAXFXFXFXFXFXAXAXAXAXAXAXCXZXFXFXFXFXZXZXZXFXFXFXFX",
"hXhXnXVXVXVXVXVXnXnXnXVXVXnXVXVXBXBXBXBXVXBXBXCXCXCXCXCXCXCXCXCXSXCXCXCXCXCXCXCXCXAXAXFXAXAXAXAXCXAXCXCXZXFXFXFXZXZXCXZXFXFXFXFX",
"VXnXnXnXnXVXVXVXBXmXmXVXBXVXVXBXVXBXBXBXBXBXBXCXBXCXCXCXCXCXCXCXCXCXCXCXAXCXCXCXCXCXAXFXAXAXAXAXAXAXAXZXZXFXFXFXFXFXFXFXFXFXFXHX",
"hXhXnXVXVXVXVXVXVXmXmXBXBXBXVXBXBXBXCXBXBXBXBXCXCXCXCXCXCXCXCXCXCXCXCXCXSXCXCXCXCXAXFXFXFXAXAXAXFXFXFXFXFXHXHXFXFXFXFXFXFXHXHXHX",
"{.XX8XuXsXdXhXhXmXVXBXBXBXBXBXBXBXBXBXBXCXCXCXCXCXCXCXCXSXSXSXCXCXCXCXFXFXFXFXFXFXFXFXFXFXFXFXFXHXHXFXFXHXHXHXHXUXUXHXHXHXHXFXFX",
"[ { L.I.R.'.{.XXOXqXuXdXdXgXhXcXVXBXBXBXCXCXSXJXSXSXCXCXFXHXHXFXFXFXFXFXFXFXFXFXFXHXHXHXHXHXHXHXHXHXHXFXFXFXFXFXCXvXjXkXkXlXtX2X",
"_ ` ` ` } } } B.B.L.R.R.}.}.{.+X+XqXuXyXpXgXkXkXjXjXcXcXcXCXFXCXCXSXCXFXFXFXHXFXFXAXSXCXvXvXcXjXkXaXaXpXtXuX2X+X.X[.[.(.R.Y.r.r.",
"N I I ! I / L.2.L.{ L.e.2.L.L.L.U.I.R.R.R.^.}.{.{.XXoX+X>X2XrXrXrXrXtXtXtXyXrXtXtXrXOX+X+XoX X{.}.}.Y.Y.Y.P.K.r.r.e.{ [ } { { ' ",
"I < 9 3 3 ^ K.K.B.Y.[.r.C Z C C C C ! ( ( ( / _ ` } } } 2.B.B.L.I.Y.R.R.R.^.I.K.K.I.L.L.K.K.L.K.L.Y.Y.K.K.K.' ^ ~ / U U U U U ^ ",
") : : : : I 2./ ! P.-XP.v , 1 2 4 2 4 4 4 w w w k k b b v m B C C J B I ~ / ! V M B B M M B Z B ` W.3X(.K.Y.' t b b y U ) N y b ",
"t 2 1 1 , C } 2 : M ).Y.y : , 2 1 , , , , 1 1 2 2 1 4 w 1 2 w m C b 1 B ( ! M k 4 , 1 1 1 2 2 2 Y _.5Xe.~ e.` 2 , = 3 r.(./ 3 , ",
"4 v m m b / L., + b !.W.G t 4 w w t t 2 2 4 1 2 4 , 4 t 2 1 t C ! m B G ! C m b 2 , 1 1 2 1 1 4 Y ).t.b f ~ { m v w t U *.G 3 3 ",
"/ ( / ~ Z } L.1 7 A (.!.P.*.( ! / [ } / / / C C / I ^ / I v 4 V I M B v n M v 4 b ! I J I B B J r.).r.f f / r._ ` / I V N v 3 3 ",
"^ ! ! / I { K.5 7 A (.).P.e.` ` } L.K.*.e.e.` } K.*.e.K.K.B : 9 M G / G y > 4 , v Y.Y.K.K.} e.K.Y.).r.f f [ Y.e.L.e.2.{ 2.[ V B ",
"n y M ^ *.P.I.j 7 A [.!.) U / ) U ' ^ / ^ ( ~ ( ` / [ *.' , : : 2 H =.Q.D > : 1 > ` K.e.*.{ *.K.Y.|.Y.k k } P.*.{ } [ } { { ^ B ",
"9 > y H %.Y.R.b g R  XY.U V ' t.t.) B M n M m B G ! ` *.G $ + $ 5 $.-.&X%.> $ 6 = n r.' ) *.' ` r..XR.k k L.e.v M B A Z M M v 5 ",
"n D H H O.Y.}.A g R oX(.G n ) W.Q.=.n 4 n n t n G V B U n $ + % 9 Y &.&Xu.0 = + > > $.W.W.P.) G r.-X}.k k R.{ < : : : : = $ # O ",
"$.u.~.$.D r.}.R h E OX[.U y H %.i.).|.` n H G G ) y < 8 > + + > u F -.f.u.S % + > > %._.Q.=.N y t.3X}.x x '.P.N y 9 8 8 < t v G ",
"%.w.%X).%.r.{.E h E OX|.t.' G D u.5XvXpXt.H Y H Y D N n > . O > S o.u.i.$XO.> + : - =.%X+.S < v P.tX].x x }.Y.H Y Y Y %.(.3XpXvX",
"&.~.5XxXaX,X@XE h E OX-XaX4X%.Y w.=XaXaXW.Y D Y Y Y ) n + . + y H @.u.i.Q.=.u O : # H Q.u u ' Y.).iX].,.,.XX).W.t.Y Y (.vXvXAXvX",
"W.5XxXxXxXiXoXE h E 8X2XxXzXY.t.=X_.t.W.=.Y t.P.+.$.' 8 o . # 0 u F &.&.o.F S > + # u =Xr.r.aXkX3XkX].x b.>XzXvX-XD u w.3X3X.X_.",
"W.3XaX.XP.(.oXR h R qXoX(.(.t.-XzX%XO.Y +.%.)..X&.$.$.- o @ 5 Y S F O.@.F a Y $.= O 0 4X.XY.iXiX>XaX].x 1.qXaXpX(.y L i P P P q.",
"p.W.t.T u *.OX| R | 8X+X!.(.3XiXzX;X).W.W.W.W.).W.w.G + . @ D u > S u.$XO.0 0 O.u @ > =X5XW.y.P.).kX'.Q M.qX!.%.Y T T P s P q.s.",
"w.w.i p p ' OXE.E.E.OXrXkXvXbXbXzXzXzX4X-X=XP.W.-X%XG +   : u.&.O.O.$X*X-.&.u.$X&.X * _.zX5X_._.-XaX'.V.V.+XP.Y T w.y.y.P s <.q.",
"P L p ; ; U OXR.`.E.+XyXvXbXKXKXxXvXbXxXxXiXt.W.xX=Xy @   8 &X&XQ.i.$X*Xi.Q.&X*Xu.  O W.bXzX7X6XiXkXXXXX'.+XP.Y w._.a.y.P s 5.q.",
"P i e r ; U qXE.| } +XtXvXbXKXbXvXvXKXvXvXxXP.W.xXt.$ .   < $X&X&Xi.&X6Xi.$X&X&X=.  o t.KXzX7X7X4XaXXX'.'.OXt.Y u.%Xa.y.<.s s <.",
"w.T p p e ^ uXR.b x.uXrXvXbXKXKXvXxXKXvXvXxX!.P.-XD # .   > i.i.&.@.i.$Xu.O.-.$XO.  . %.KX6X6X7X4XaX}.] R.2Xt.O.t._.a.y.<.s s <.",
"p.%.L i p ^ pXqXx.@XhX2XaXvXbXvXzXiXxXaXiXiX!.*.*.8 #     : &.&.+.+.o.O.&.+.+.p.S   @ ) bXzX5X6X4XvXOXx.@XaXt.+.t.a.y.q.q.s d s ",
"w.' ' i p ^ yXgX+XsXBXuX.X).(.|.|.).|.).).).t.U n - # X . + &.&.F @.O.F O.F F u.9   + n 4X4X).;X4XvXcXOXkXkX*.%.W.w.D L T i d d ",
"Y U t.L < U yXhXhXhXgXyX.X' y D =.Y =.t.t.t.) U 9 - o X @   o.&.F a =.t.$.a &.=.% . $ 8 ).|.!.).tXvXFXZXUXiX` $.W.%.u L ) p p r ",
"Y Y t.u $ ! uXgXgXkXdXpXOX` - * u Y +.%.=.W.%.N 9 -   X $   9 &.@.&.-.;.;.-.&.Y X @ : 8 W.!.Y.=XaXvXUXFXUXtXG Y t.D 9 Y r.L p ; ",
"D %.*.< $ I oX8XoXXXoXyX2X' & & 0 D Y $.%.P.U < > - . + $   + o.&.&.O.X.-.i.t.- X @ : 8 *.*.Y.4XaXaXkXkXvX2XU ) Y u D %.T L i p ",
"n ' ' 3 5 C I.I.E.B.T.OXOX' & 8 u S D Y G V < $ b 5 . : # X   0 w.i.-.-.i.Q.u   @ . + > G N K.iX2XY.Y.}.oX[.) G D N %.y.L i ' L ",
"B G G v t M { _ ] W ] {.+X} # < u n S N 9 : . $ ` ( @ > $ X   - o.u.Q.$XQ.+.O X + . + - n v *.iXoX/ ( *.K.P.^ U U Y %.%.N N t.' ",
"M b b 2 : b { / C v ~ {.OX} . O - 9 9 > + .   = L.P.$ 6 =     > F O.&.w.+.0 O @ $ . O % D I L.iX X~ I ` e.e.M B G ^ ` ` I G ' G ",
"4 1 , , : 2 / ~ M v ` +XrX} X   o - - o X X   + e.' + > % O X 8 F F o.o.a u & + : @ o & n ^ K.iX XJ C / 2.[ 1 , b B ` } / [ ` ^ ",
"6 1 1 1 , 2 W / ~ C } OXrX} O . . # = o       $ U 8 + > - > % 0 F F o.o.a u & $ % + # % 9 V P.aX+X~ ~ [ [ ~ 4 1 1 1 v B M / ` [ ",
"9 t 4 2 , w ] L.B.W [ +XrXe.$ O   O = o     . : 8 * % > 8 9 < a o.o.o.o.a 8 - : : O + - 9 G Y.aX2X2.[ B.U.[ b b b t N N < b Z C ",
"k t 3 1 , k B.^.U.[ 2.XXuXL.= + X . < =   X + 9 6 % > 6 U u 0 S X.F O.o.a 9 % : : = % > n D P.kX>X2.L.I.^.U.2 3 b v N T y m Z b ",
"w t 9 1 1 m T.^.I.[ 2.+XuXe.+ .   # y - O O : 8 6 > > n (.F a a F O.o.o.a 8 % 9 > : y 9 n D Y.aX2X{ e.I.}.I.t 4 b y N T N J I v ",
"b b v t 2 m I.R.T.[ ] +XrX*.: O + = 8 8 = = H H 6 = : ) .X%.F o.o.o.F o.a 0 U U n t ) %.u Y.-XtXoXI.I.R.XXI.v v m t N U v M C Z ",
"t M V v w m U.R.L.{ ` oX>X} : $ = > 8 < < V aX!.6 = - G Y.).O.o.@.O.o.o.F D R.Y.{ ) Y..XP.!.FXyX>XyX.X(.oXI.V Z M b n n t v M m ",
"v ~ ^ M b m U.R.2.2.` XX>X*.5 : 5 3 y t G xXIX|.6 4 n U [.-X=.&.-.@.o.o.F Y.dXoX-X} [.iXUX.XCXIXFXIXtX^. XU.Z V ~ ^ I t w B m b ",
"` L.{ M b Z I.R.r.2.]  XqXW.o.u 9 v V v {.IXHXOX: G { *.+X+X~.o.#.#.@.@.$.rXBXkX!.Y.[.(.!.-XjXSXIXvXOXI.[.K.C Z { Y.I.^ M m m v ",
"T.B./ M v J R.R.r.B.B.<X+Xg.h.s.V G V B tXHXNXkXM 9 ^ R.-XoX|.#.#.-.-.O.W.FXgXY.Y.+XcX{.( oXkXCXIXkX[.U.}.I.! Z ~ K.(.R.e.~ Z M ",
"V./ B B M ! I.U.[ V.].wX).d.j.h.) U U P.kXlXgXjX}.G (.(.+XrX3X-.-.-.-.&.iXyXY.Y.{.tXcXrXR.uXNXyXHXUX}.U.R.I.~ Z Z ^ e.R.}.^.2.Z ",
"3.W ~ / M / ] / ~ a.<X1Xy.6.h.h.+./ ) .XhXtXjXaXgX{.2X>XqXyXiXW.-.u.#.Q.uXP.!.{.qXgXSXdXOXkXkXjXIXHX[.2.L.e.I ( } ~ W ^ P.{.[.B.",
"_ _ [ B.J 2.B.2.3.y.g.i.q. .d.d.%.] / tXhXOXNXjXkXjXyXuXjXkXxX|.#.u.#.).{.Y. XrXuXjXGXhXdXmXgXNXHXPX(.U.^.R.[ [ '.{ W V ~ B.(.T.",
"~ ] L.^._ U.^.T.Z.Z.'.`.<.s X.;.V.M.] dXJXoXZXMXhXCXjXrXCXCXZXiX-.-.-.).}.[.>XuXgXBXGXCXjXjXkXGXPXGX X^.'. X2.U.).e._ W J J 2.%.",
"N.1.2.(.r.I.'.Z.J.H.J.A.<.6.q $.D.D.Z.rXSXtXxXkXkXCXjXuXrXIXFXFXi.#.p.|.oXoX>XyXhXjXGXSXhXjXmXGXIXMX5X2XXX^.2.U.%X_.B._ _ Q _ T ",
"N.Q e.R.e.] Z.D.H.F.D.z.U q.a F Z.J.J.8X[.qXHXvXyXHXCXgX+XkXIXIX%X-.).>XOXOXuXxXkXkXBXJXmXjXCXCXtXoX1X7X5X XB.B.a.h._.K.r.R.i.w.",
"l.] t.{ ( x A.H.F.F.C.W ] T N D G Z.J.eX|.{.dXHXuXCXGXgXgX@XFXIX;X@.=XuXyXuXcXkXgXkXjXSXmXgXmXGX[.uX1X0.j.4X].3.+.f.6XVX=Xh.d.@.",
"x W %.E :.Z.J.F.F.F.C.~ ] ] C W W Q C.eX2X|.rXPXgXjXBXmXkXOX2XIXkXw.tXdXjXhXjXyXkXjXmXGXjXgXCXmX(.sX1X9.0.zXqXY.` t.bXIX6X .o.D ",
"c K ) :.c.#XJ.H.F.H.C.B W V.| Q z.x l.wXpX2X[.jXkXgXGXhXkXkX}.SXHX%XjXLXxXmXlXyXjXjXmXGXjXmXLXuX.XsX1X9.0.=X,X5Xp.d.6X6Xg._ _ J ",
"Q } %.&.:.:XeXS.G.F.C.W x m.M.l.v.v.k.9XkXoXR.+XCXgXmXCXgXjXOXoXIXCXPXLXBXjXgXCXmXGXLXBXBXPXHXrXpX8X1X9.8.=X3X5X_.h.h.8.d.r.2.] ",
"Y.rX|..X~.~.C.S.S.S.n.l.k.v.k.k.k.k.z 9XkX-X+X}.kXgXjXGXgXjXyX}.CXIXIXFXCXkXjXmXGXLXPXnXhXhXCXuX>X8X6X8.f.,X<X/.y.#.>...s.3.T _ ",
"] '..XcXcX;Xz.k.v.n.v.k.k.k.z z z z x 8XjXOXOX XuXjXlXCXmXjXkXoX+XIXFXCXkXkXkXkXLXLXBXsXgXgXdXoXuXqX5X6.3.4.4.,.q. ..... .J K K ",
"C.Z.).NXHX=XT.l.k.k.z z z c c c x x V.-XkX0X{.{.OXGXyXCXCXjXjXgX}.HXHXGXyXjXBXHXLXJXhXdXCXLXuX X0XyX Xr l l ,.,.w.......8.P k w ",
"C.V..X0XkX;XoXN.b.l.x x x x l.z.b.V.pXiXsXuX{.(.oXmXkXkXjXjXHXCX XrXIXjXyXjXPXPXCXmXdXhXmXGX XoXqXiXXXl l Q ,.M.p. ...9.0.d.K k ",
"N.M.;X|.pXHXgX(.U.M.N.b.z.m.m.m.m./.dXlXfXuX|.}.oXgXmXyXCXjXCXmXrX{.gX>XgXCXJXLXGXgXsXhXjXdXR.OXXX2XuXQ 1.V.V.].|.i.>.9.9.8.L k ",
"z.I.%X).rXVXHX*Xh.f.^.M.z.m.m.m.m.V./.uXfXtX[.}.OXuXBXrXjXhXdXdXgXOX+XrXdXJXJXPXhXuXuXdXjX+XR.>XXXtXrX1./.3XkXjXgX0Xh.7.7.8.Y.] ",
"!.%X$XQ.|.yXNX:X>.h.*Xa.M.N.M.M.M.1.M.sXdXyX X}.OXOXmXrX8XgXfX8XuX+XOXHXsXmXJXmXqXqXdXgXjX'.R.>X[.yX>X`.4X7X7X6X5X-Xd...7.h.vXiX"
};
