/* XPM */
static char *_b021edb472f4e8d85b44db48c50cb10pm67bpJokJO2fgFZ[] = {
/* columns rows colors chars-per-pixel */
"64 64 256 2 ",
"   c #070A0D",
".  c #060C15",
"X  c #09151E",
"o  c #06131A",
"O  c #191918",
"+  c #16130E",
"@  c #291E18",
"#  c #31281B",
"$  c #0D1B23",
"%  c #0B1A25",
"&  c #111D26",
"*  c #121F29",
"=  c #111725",
"-  c #101728",
";  c #0E202B",
":  c #0D2024",
">  c #14222B",
",  c #1A242E",
"<  c #182326",
"1  c #1B2631",
"2  c #172834",
"3  c #282828",
"4  c #372C26",
"5  c #3C322C",
"6  c #383429",
"7  c #242C32",
"8  c #27333A",
"9  c #3A3936",
"0  c #352C31",
"q  c #1F2018",
"w  c #47392C",
"e  c #473B34",
"r  c #473029",
"t  c #3D4737",
"y  c #48443B",
"u  c #4A5637",
"i  c #504D36",
"p  c #54603C",
"a  c #644D3F",
"s  c #333A42",
"d  c #293B44",
"f  c #394446",
"g  c #374C55",
"h  c #345B69",
"j  c #386A76",
"k  c #1B5D73",
"l  c #484A48",
"z  c #584C45",
"x  c #4B514B",
"c  c #585749",
"v  c #485658",
"b  c #5A5D5B",
"n  c #565956",
"m  c #474E53",
"M  c #685849",
"N  c #765A4A",
"B  c #655D55",
"V  c #725750",
"C  c #586446",
"Z  c #5B625E",
"A  c #49625F",
"S  c #67634C",
"D  c #676559",
"F  c #776657",
"G  c #757559",
"H  c #6D6C4E",
"J  c #475D64",
"K  c #525762",
"L  c #496368",
"P  c #5B6363",
"I  c #586869",
"U  c #486C7A",
"Y  c #5A6A74",
"T  c #5A7578",
"R  c #517272",
"E  c #636563",
"W  c #6B6B64",
"Q  c #666A68",
"!  c #746C64",
"~  c #6B736C",
"^  c #777569",
"/  c #646E75",
"(  c #697676",
")  c #737572",
"_  c #747C7C",
"`  c #777B76",
"'  c #715E61",
"]  c #413E5B",
"[  c #886758",
"{  c #917057",
"}  c #88796A",
"|  c #967866",
" . c #867C74",
".. c #8F726A",
"X. c #A57B68",
"o. c #A57F73",
"O. c #A56C51",
"+. c #ED7C64",
"@. c #B76535",
"#. c #79857A",
"$. c #748773",
"%. c #7E993A",
"&. c #88856A",
"*. c #84837C",
"=. c #8A8676",
"-. c #968778",
";. c #958E6F",
":. c #A7836B",
">. c #A78778",
",. c #B48878",
"<. c #A8947A",
"1. c #B29375",
"2. c #9F915A",
"3. c #CC936A",
"4. c #E4A46A",
"5. c #BCA75B",
"6. c #307089",
"7. c #1B7188",
"8. c #51778B",
"9. c #687B84",
"0. c #727E88",
"q. c #1687AC",
"w. c #2F8BAF",
"e. c #598593",
"r. c #688387",
"t. c #798587",
"y. c #698895",
"u. c #7A8A95",
"i. c #7B9499",
"p. c #73918D",
"a. c #4E8FAE",
"s. c #7999A5",
"d. c #6997AF",
"f. c #71A6B3",
"g. c #71AC90",
"h. c #2699C8",
"j. c #38A8D4",
"k. c #32B5EE",
"l. c #51ACD3",
"z. c #53BAEC",
"x. c #6EA2C0",
"c. c #51C1F0",
"v. c #65C3F9",
"b. c #878A85",
"n. c #948C85",
"m. c #89928A",
"M. c #979588",
"N. c #889699",
"B. c #959996",
"V. c #858E97",
"C. c #A69788",
"Z. c #B89785",
"A. c #A59C94",
"S. c #B89D95",
"D. c #AC8C83",
"F. c #9CA299",
"G. c #9BA18C",
"H. c #AAA38A",
"J. c #BBA68B",
"K. c #A8A599",
"L. c #B6A897",
"P. c #B9B393",
"I. c #899BA4",
"U. c #959DA6",
"Y. c #8BA5A9",
"T. c #96A6A9",
"R. c #88A8B8",
"E. c #98ACB5",
"W. c #9DB2BC",
"Q. c #95B4B9",
"!. c #8FB1B3",
"~. c #A6A9A8",
"^. c #B6ADA5",
"/. c #BAB6AA",
"(. c #A7B6BA",
"). c #B8B8B6",
"_. c #A8B1AE",
"`. c #A59DA3",
"'. c #C59A89",
"]. c #CA9C92",
"[. c #C8A48B",
"{. c #CDA593",
"}. c #CAA897",
"|. c #D1A694",
" X c #D3AB95",
".X c #D3AC9A",
"XX c #D5AA9B",
"oX c #C8B59A",
"OX c #D5B29D",
"+X c #CFB08E",
"@X c #C6B8A7",
"#X c #D7B6A5",
"$X c #C5BBB5",
"%X c #D8BDB6",
"&X c #D2ADA2",
"*X c #EAB396",
"=X c #BDC2B9",
"-X c #AAC3BA",
";X c #97C7BB",
":X c #CDC696",
">X c #C9C6B9",
",X c #D6C8B7",
"<X c #D2CAAB",
"1X c #E3CDB9",
"2X c #EFD1A4",
"3X c #9BB6C3",
"4X c #8EB4CC",
"5X c #A7BAC5",
"6X c #B4BCC5",
"7X c #A0BDD3",
"8X c #9BCDCD",
"9X c #ABC3CB",
"0X c #B7C4C8",
"qX c #ADC5D3",
"wX c #ACC9D9",
"eX c #B3CDDC",
"rX c #B8CAD5",
"tX c #B6D1DE",
"yX c #BBD2DC",
"uX c #B4CEE2",
"iX c #B6D2E2",
"pX c #BAD5E4",
"aX c #BBD6EA",
"sX c #BEDAEC",
"dX c #B7D7E8",
"fX c #BEDCF2",
"gX c #B5D3F1",
"hX c #ABCCE8",
"jX c #CACBC6",
"kX c #D5C9C3",
"lX c #D8D5CA",
"zX c #C9D5D7",
"xX c #D7D9D7",
"cX c #C7CED2",
"vX c #E7DAC7",
"bX c #E6DDD4",
"nX c #D9E2DD",
"mX c #E7E6D8",
"MX c #F1EBD4",
"NX c #C1DCED",
"BX c #C5D8E6",
"VX c #C2DEF1",
"CX c #CAD8F3",
"ZX c #C0CBE1",
"AX c #C9E2EB",
"SX c #D9E5E6",
"DX c #C5E2F4",
"FX c #CAE5F5",
"GX c #C8E4F9",
"HX c #D7EBF3",
"JX c #E6ECE4",
"KX c #EAF3E4",
"LX c #F5F4E9",
"PX c #FBFCF5",
"IX c #F8F9F4",
"UX c #EDF1ED",
/* pixels */
"qXcXJXnXrXeXiXtXeXwXqX9X5X5X3X3XW.3XW.W.W.T.T.E.~.F.N.I.N.N.i.i.N.I.N.i.i.i.i.i.i.N.N.I.Y.E.W.5X5X5X(.5X5X5X9XrXeXtXpXNXNXFXFXFX",
"rXxXKXSXrXwXeXeXiXiXtXiXiXtXtXtXeXeXeXeXeXqX9XrXzX0X(.W.W.E.W.W.W.W.W.E.E.E.E.E.E.W.5X5X9XqXeXtXpXiXtXpXpXBXNXNXFXFXFXFXFXFXFXFX",
"zXJXLXJXzXqXeXeXeXiXiXpXpXpXsXsXNXNXsXVXNXpXBXHXUXSXyXeXeXeXtXtXtXpXtXeXtXtXtXtXiXpXaXsXNXDXDXDXFXFXFXFXFXFXFXFXFXFXDXDXDXDXDXDX",
"nXKXLXKXzXqXeXeXeXeXiXiXiXiXpXpXaXaXaXsXsXpXBXFXUXHXAXNXDXsXNXAXDXDXDXDXDXDXDXDXDXDXGXGXDXDXDXDXGXGXGXGXGXDXDXDXDXNXNXVXVXDXVXVX",
"JXKXKXKXnXrXwXeXeXeXiXiXiXiXiXiXiXpXpXiXpXpXpXNXSXHXNXsXfXsXNXDXDXVXVXDXDXDXDXDXDXDXDXDXDXDXDXDXDXDXDXDXDXVXVXVXVXVXVXVXVXVXVXNX",
"KXKXKXKXSXyXqXwXwXeXuXuXuXiXiXiXtXpXiXtXpXpXpXpXzXBXpXsXsXaXsXVXfXsXsXfXfXVXDXfXVXVXVXNXNXNXNXNXNXNXNXNXNXNXNXVXVXNXNXNXVXVXNXsX",
"KXKXKXKXJXzXqXwXeXeXtXeXeXiXiXiXeXiXtXtXpXpXpXtXeXiXiXsXsXpXsXsXsXaXsXsXsXsXNXsXNXNXNXNXNXsXsXsXsXsXsXsXsXsXsXVXVXNXNXNXVXVXNXNX",
"mXKXKXKXJXSXqXqXwXeXeXeXeXuXiXeXeXeXeXiXsXpXiXtXiXiXiXsXpXpXsXaXaXiXaXsXaXaXsXaXaXsXfXVXfXsXsXsXsXsXsXsXsXaXsXsXVXNXsXsXNXNXNXNX",
"mXKXKXKXKXSXrXeXeXeXeXtXeXtXeXiXiXwXeXBXBXzXtXuXtXeXaXaXsXpXNXpXaXuXNXpXpXaXfXaXaXaXsXsXsXsXNXNXNXVXNXaXNXNXsXNXNXsXNXpXsXNXNXNX",
"xXmXmXmXKXxX9X9XeXeXeXtXiXiXeXiXiXuXeXBXBXBXtXuXuXdXiXdXyXNXiXsXaXtXiXdXaXsXpXiXaXaXsXsXsXVXsXaXfXsXfXVXNXaXaXNXsXsXNXVXVXVXsXVX",
"K./.>XjXjX_.(.5X5X5XqXqXwXeXeXiXeXiXtXBXHXBXiXuXaXiXdXsXBXzXzXlXzXAXhXdXdXpXpXaXsXfXfXfXsXsXNXVXVXsXsXVXsXaXVXNXNXpXiXaXeXiXtXeX",
"W W ^ *.` B.jXzX_.N.I.U.T.E.W.5X5X9X9XBXHXBXeXeXyXtXsXFXcXkX1X<XJ.$XCXaXdXpXVXfXsXNXsXsXsXsXpXBXpXpXpXtXtXeXeX9X9XqXrXrX5XE.E.T.",
"x x c c c b.jXzXF.~ ` ) ( _ _ u.N.N.T.(.0X(.W.W.W.9XzXjX-.} [ M F B 6XaXwXwXwXhXwXqX9X9XqX5X5X5X(.W.W.E.T.T.I.N.b.~.zXzX_._ ( ) ",
"y y y 9 9 B M.K.W D *.E y l x P _ _ B.B._ ( _ 9.y.V.G.^ e 3   O 3 y m._.Y.I.u.N.i.V.u.u.t.t.N.E.B.t.t./ I I Q _ ) *.jXlXM.b n x ",
"y y y l 9 9 l l l W n.W y l x P / Q B.m.b v v n K E ^ y 7 X . 3 y x -.<XM.Q P n b P P Z n b _ ~.B.( _ Z m l b ) ~ b *.b.b e y y ",
"B D ^ W x x b n b ~ ) Q b b b ( E l *.M.Q P Q Q Z ) B 5 q 6 B ..S.H.<.| { -.) Y ) ) ` ` ) W ` K.#.Z t.~ Z Q ~ ` ) b x l 9 l 9 n ",
"D !  . .! D D D Q E W ~ 0.*.) ` P s Q b._ _ ` ` _ ^ l 3 5 [ [.kXlXvXoXF e D M.`  .n.m.b.*.` b.b.m m b.#.~ _ t.~ Y Q Q P m l l W ",
"F ^ ! ! ^ ^ W D D D D ^ *.n.*.b.Q s ( m.t.B.B.W Q ` e 3 z >.&XkX%X,X1XL.5 r  .`  .*.b.n.M.n.m.t.v v t.` Q ) ` Q b b P n l t l n ",
"=.=.F ! M.^.~.n.^ ^ H D ! -.^._.) g 9.B.b.A.A.n.D B 0 4 V Z.#X$X$X&X<X,XB # B ^ W W ` n.C.n.B.N.J I m.) n Q ~ x x l n b x 9 0 7 ",
"^.C. .} H.bXJXlXC.} ;.M. .n.lXxXB.g u.T.*.-.^.kX} y 9 r [ [.#X%X%X#X#X,X=.4 M  .) B./.^.C.b.B.U.L ( ).^.W n W W c b.^.>X~.b 0 3 ",
"/.@X>X/.@XvXmXjX<.&./.lX$XK.lXJX`.] u.T.n.n.L.mX&.6 0 e X.}.#X%X%X1X,X1XM.5 z C.^.jXlX@XC.^ V.E.U u.xXjXn.A./.M.! ).xXxXjX^ 9 z ",
"L.1XmXbX<X<XlX=XH G /.lX>XK.jXmX~.K 0._.$X$X@X>Xi 5 5 V >.}.&X}.}.J.@X1XL.y z @X>XjX>X@X/.^.~.Y.U i.SXxXK.>XlX^.D K.lXlX>XM.&.M.",
"@X1XvXmX<X<X>XM.p p <./.C.=.=XzXU.m 0.cXnXbXlX-.5 e 6 M F o.'.'.| F <.}.C.y y L.bXjX).jXbXxXcXT.U i.zX$XM./.jXK.S ^ H.<X:X:X:X,X",
"oXP.P.oXJ.P./.&.u G G F M M =.~.V./ V.xXUXUXMX} 5 5 e ! F [ >.X.N | C.<.-.B 5 ^.LXJXJXKXLXIXSXE.U i.).~.^ ^ ^ D C H <.:X<X<X<XbX",
"<.} S H &.;.$.t S ;.G S p u c t.I.0.N.SXIXLXLXz 6 @ y n c F [ [ F B y F  .B 4 C.PXIXIXIXIXIXUX(.9.I.U.*.^ D C C C H ;.:X:XP.P.,X",
"&.i # c &.&.p 6 =.H.G c u i u b.U.t.U.SXIXPX$X5 3 @ y y i M >.S.F } V ..<.B + ! PXIXPXPXPXPXUX(.y.I.U.*.^ ^ H C p C G &.&.&.&.H.",
"H.c y S ^ S 6 C K.P.&.^ H p x m.W.V.T.SXIXPX .3 + @ V ....[ Z.%X| >.}.}.S.-.6 i LXPXIXIXLXIXUXE.y.T._.n.^ ^ H C p u u u C C C H ",
"J.F i C c i # =.>XH.&.C.=.G ^ F.6XE.(.SXIXlXz O . 4 [ o.>.| .XbX>.,.#X].Z.-.4 6 ,XPXIXIXLXIXUX5XI.(.jXK.=.^ D C u u u u =.$.u u ",
":.N c c c c y G.lX-.&.L.-.;.M.^.cXrX0XxXUXA.5 +   e | X.o.:.'.}.Z.X.'.].].o.4 3 M.LXJXKXLXKXSXrX5XrXzX/.M.*.D c t t u D M.H.K.&.",
"N N S S S H c M.@X;.} -.} -.C./.cXcX0XzXlXM 4 q   w :.3.,.X.[ N [ { X.Z.Z...e 5 F ,X$XkXlXxXzXrXeXrX0X^.K.=.W D t u c D =.L.,X@X",
"M M M B D } ^  .n.} G ! ! =.-.K.).(.(.0X/.i w O   r ,.,.X.X.{ { >.X.{ o.>...z 3 V @XL.L.$XjX).E.5X(.~.K.A. .^ W c c c G G M.mX,X",
"z z c c D ^ ^ F B D D D ^  .} =.M.V.N.).$X .B O   r :.X.| '.'.Z.S.,.{ { o.N # 3 V <XP.L.K._.U.t.u.N.b.n.M.^ ! ! D B D =.G =.lX/.",
"l x x x b Q W W D D E W W ) D b ` K.~.=X=X .z # O # | O.{ >...[ ' V [ { >.e   3 z C.L.A.A.~.R.9./ Q E ~ ` ) Q ~ Q n S -.` #._.M.",
"l x l b b E E E W D Q ) Q D n W ^.,XxXlXjX .e 5 q @ | :.[ N [ ..[ M | :.-.4 O 3 y } M.A.^.(.3XR.i.( v x b E E E Y Z D ` ( _ V.Q ",
"x v n E Q P P P ) E E ) D W ) M.,XMXMXmXjX`.y w 3 + F 1.1.,.,.>.o.D.:.| } O O 6 y } A.^.^.6XhXhX7XR./ m x n P P / Q P Q / 0.t.I ",
"b b b Q P m m n ~ Z Z ^ W *.M.K.vXMXMXmXjX).n 4 4 + i >.1.].,.o.,.Z.X.:.B   < 5 e =.A.^.$XrXgXgXgXqXI./ b n P P I K K I / 0.t.( ",
"n b b P x t f n W D D ^  .A.L.L.1XMXMXMXzX(.n 5 5 O # :.1.'.].[.'.Z.>.-.e   3 4 w  .C.^.,XrXhXgXgXwXU.b._ ~ I v v v m v K Y t.( ",
"n n b E n l l b W W W  .n.L.L.L.,XvXMXMXxX6Xb e 5 @ # N 1.{.XX#X}.Z.-.} 5   3 4 w } C.@XvXcXhXiXgXqXU.N.N.t.( v n m f f f n _ P ",
"P E Z Q b x x b Z ) *.n.A.L.L.H.,XvXvXmXxXyX( 4 4 5 z N { ,.,.>.D.| [ } 5 + 0 # y  .C.<XvXzXgXiXuX5XU.I.U.V.0.I n v l f l P _ P ",
"/ Q b Z n x x P ) b.M.m.M.K.L.H.@X<XvXvXcX6XB.r 4 5 z [ { | { [ [ ..} | 5 x E e B  .C.<XvXzXhXwXwX5XI.I.E.U.V.( I K m m m I 0./ ",
"~ I P P b n n ~ b.I.V.b.#.n.A.m.K.$X>XjX5XE.B.^ e 4 4 N :.:.| ..| <.>.| i ^ ! y =.b.M.@XkXrX7X7X3XU.N.N.V.N.V.p.0.~ n m m n Q / ",
"P I I I I I I t.m.N.t.Q / t.B.V.b.T.(.5XE.N.B.t.c @ w o.:.<.1.>.<.<.D.>.M 4 5 D A.V.V.^./.W.4XR.s.i.V.N.t.9.r.u.N.m.P v g v n J ",
"/ ~ ( ( ( r.R t.B.t.I Q / r.I.N.i.f.R.3X9XT./ 8 O a { 1.'.[.Z.<.C.Z.Z.>.{ e 3 l I t.t.V.E.R.f.x.y.y.I.T.t.J I / u.B.( L R I I ( ",
"_ $.#.#.p.i.( =.C.m.^ } ~ ( u.i.f.4Xs.i.r.v 2 : 3 >.1.'.{.}.[.J.J.J.Z.Z.1.F O 7 f f m L T y.s.f.d.y.Y._.b.v L L t.B._ 9.p.#.b.B.",
"( #.#.#.N.Y.`  .C.~.A.:.G I 9.s.8.g f g d 2 1 O 9 }.[.+XXX}.[.J.J.}.J.J.[.=.o 8 s f m v J v L d.x.d.I.T.#.I I v ~ b._ i.I.t.m.B.",
"r.r.$.u.E.T.( D <.$X>XH.~ U d.e.g d s f d 1 , = 9 &X+X[.{. XZ.J.J.[.[.[.|.-.O 8 s 7 8 d d s f U d.d.d.y.Y A L v v Z I s.!.N.m.#.",
"T T r.I.(.Y.Y n ;.#X#XH.9.e.e.f 8 d d 8 7 1 , & f }. XoX XOX[.Z.}.[..X}.{.-.< 1 8 7 1 1 , , 7 d y.f.a.8.Y A L L g g v i.3X!.V._ ",
"I R r.T._.u.A v { 5.3.C.y.d.g 7 2 2 2 2 1 > > % 9 XX{.oXOX X X XoXOX}.oXOX-.& 1 1 1 > > , > 1 1 g f.f.I.M.#.L L J g g y.3X(.T.V.",
"R T y.!.T.( v I { @.O.B.x.L , 2 > > > > , , > & 8 {.|..X XOXOXOX&XOX.X{.OX .$ 7 1 , , , > > > < 2 p.Y.@X:X1.) L J h g Y Y.W.E.i.",
"R r.s.Q.i./ ~ _ | O.X.~.f.d > 1 * & $ & > > * & , Z. X.X XOXXXOXXX X.X{.OX} $ , 1 , , , > * * > X _ ).+X:X5.&.I L A v I s.Q.Y.p.",
"T y.Y.!.p.#.m.m.n.>.S.6Xy.% & * $ $ $ & > * & & & D..X|.|. XXX.XXX{..X{.#XB $ , 1 , , , * & & & . E jX4.4.5.&.T L J I ( p.Q.Y.p.",
"i.Y.Q.!.N.N.F.B.~.).6XcXJ X > = $ $ $ * > * & > X  .&X{.{.{. XXX}.[.|.{.#Xz % , 1 , , , > & = = o f zX[.3.2.$.a.U J ( b.u.!.!.i.",
"(.5X9XE.Y.T.E.(.6XqXeXZXf X $ = X X $ & > & & > o W #X{.{.{.|.{.}.{.{.{.}.9 * , 1 , , , > & = $ % 2 3XS.O.2.g.l.a.U I *.n.T.Q.R.",
"9X9XzXrXE.5XeXsXrXqXaX6X1 o % $ X X $ & > * * > % x .X|.}.|.|.|..X|.{..XS.7 > , 1 , , , > & = = $ o i.C.[ 2.f.v.l.a.j I b.B.Q.4X",
"(.rXFXAXtXtXAXHXcXrXNXT.$ $ % $ X $ $ & > > > > % 9 ].|.}. X+X.X.X X{..XD.< 2 , , , , , > & $ $ $ . 8.G.%.;.l.z.c.z.a.8./ t.R.4X",
"T.yXNXAXAXBXBXBXrX6XBXU.X - % = X $ & & > > > & % 7 Z.].}.{.+X.X}.|.[..X-.X 2 > , , , , > & & $ & . j g.%.&.l.k.c.c.z.a.J v s.4X",
"H._.zXBXAXBXCXpX6X6XzXi.o = $ X X $ & > > > * ; & < n.}.[.{.oX|.|.}.{.OXW % 2 < > 1 > > > * $ $ : . 6.f.$.r.l.k.c.z.z.l.8.g 8.4X",
"P.~.6XzXzXrXZXpX0X(.rXi.o $ $ $ $ $ & * > * * ; > X  ..X|.|.}.|.|..X{.#Xx % > < > 2 > > * & $ $ &   6.z.a.l.z.z.z.c.z.z.a.h L s.",
"H.K._.0X-X5XrXyXrX6XrXV.o X o $ $ $ & * * * ; ; , o W #X XXX.X XXXOX.X&X9 % > > > > > * * & $ $ ;   6.z.j.l.z.z.z.z.j.j.a.8.J y.",
"C.M.F.F._.(.6X(.5X5XrXi.o o . o $ $ & * * * ; ; > X x @X XOXOX.XXX.X#XS.< > > > > > > > * * $ X %   j j.j.j.l.j.j.j.j.h.w.a.6.9.",
"K.M.F.F._.(.(.T.I.i.T.9.o o . . $ $ $ & * * ; ; * % 8 @XOXOXOX.X&X.X1X=.X 2 > > > > > > ; > $ . . . 7.h.h.w.h.h.h.h.h.6.8.s.V.D.",
"_.B.~.~.).(.9X(.N.9.r.T % . . . $ $ $ & * * * ; ; > > K.#X&X.XOX#X#X1XE % > > > > ; > ; * > $   o o k q.q.q.q.q.q.q.e. .:.].#X*X",
"-XB.B.G.~.9X8X;X_.i.e.e.; .   . $ & * > ; ; ; ; > > $ =.1X#X&X#X#X<X%Xs % > > > > ; > ; * > $   o o k 6.7.7.7.7.6.t.,.3.4.4.*X*X",
"-XF.B.b.m.9X8X8X=XW.f.d.; .   . * > > > > > > ; > > % ! 1X#X#X#X#X,X^.< ; > , ; > > > > * > & . . = j e.6.6.6.6.$.[.3.+.+.4.4.4."
};
