/* XPM */
static char *_3e8a71ec9ab46a5d140c45120df24f1S5YBwXQBxH0pqrf1[] = {
/* columns rows colors chars-per-pixel */
"64 64 256 2 ",
"   c #110E0C",
".  c #261B13",
"X  c #262619",
"o  c #312E18",
"O  c #292725",
"+  c #352B25",
"@  c #393629",
"#  c #393736",
"$  c #2D2F30",
"%  c #121F22",
"&  c #463C37",
"*  c #4B382D",
"=  c #6B1F29",
"-  c #3A423D",
";  c #484829",
":  c #48453A",
">  c #564639",
",  c #565538",
"<  c #53582C",
"1  c #66523A",
"2  c #5B6228",
"3  c #102F51",
"4  c #303A4F",
"5  c #133D6E",
"6  c #713B48",
"7  c #473646",
"8  c #38484B",
"9  c #184779",
"0  c #14426E",
"q  c #2D516D",
"w  c #484846",
"e  c #564A44",
"r  c #4A524B",
"t  c #585449",
"y  c #4D4A53",
"u  c #4D5554",
"i  c #595956",
"p  c #574958",
"a  c #675647",
"s  c #765849",
"d  c #655B57",
"f  c #755050",
"g  c #59635C",
"h  c #68655A",
"j  c #75685A",
"k  c #79735A",
"l  c #72694D",
"z  c #595C66",
"x  c #524E65",
"c  c #6F5B66",
"v  c #5B6766",
"b  c #537274",
"n  c #686966",
"m  c #776C67",
"M  c #6A746B",
"N  c #77756A",
"B  c #6B7876",
"V  c #777A77",
"C  c #6E6C75",
"Z  c #8B2938",
"A  c #B4253B",
"S  c #971328",
"D  c #8C2F45",
"F  c #B03154",
"G  c #BE3468",
"H  c #C62B51",
"J  c #E03B6E",
"K  c #876958",
"L  c #8B7159",
"P  c #876C64",
"I  c #877868",
"U  c #977867",
"Y  c #867A76",
"T  c #947671",
"R  c #A37B69",
"E  c #A67272",
"W  c #985A63",
"Q  c #CF4A76",
"!  c #DE5C75",
"~  c #78847B",
"^  c #708A78",
"/  c #65826C",
"(  c #968530",
")  c #B89020",
"_  c #CB9D2C",
"`  c #CEA92F",
"'  c #D2A116",
"]  c #8F8E57",
"[  c #888568",
"{  c #9A876B",
"}  c #87847A",
"|  c #978778",
" . c #999678",
".. c #A6836A",
"X. c #A88977",
"o. c #B58D7A",
"O. c #AA9479",
"+. c #B6947D",
"@. c #A88C6D",
"#. c #AFAE6C",
"$. c #ABA559",
"%. c #C5B56E",
"&. c #CFA85A",
"*. c #D3D175",
"=. c #ECD471",
"-. c #E5CE57",
";. c #F6C230",
":. c #174B84",
">. c #1C548C",
",. c #1C5588",
"<. c #1D5C9B",
"1. c #1A5895",
"2. c #0A4B8D",
"3. c #23568A",
"4. c #225E9C",
"5. c #265B94",
"6. c #275289",
"7. c #19639B",
"8. c #25649C",
"9. c #366994",
"0. c #195CA4",
"q. c #0C5CA1",
"w. c #235CA5",
"e. c #1C64A7",
"r. c #1C69B6",
"t. c #1F75BE",
"y. c #2464A4",
"u. c #2266AB",
"i. c #2469AD",
"p. c #2A69A9",
"a. c #256CB2",
"s. c #296DB3",
"d. c #266CBA",
"f. c #2C74BC",
"g. c #2573B7",
"h. c #3475B6",
"j. c #306FAC",
"k. c #50718F",
"l. c #707A90",
"z. c #4A77A8",
"x. c #757BB8",
"c. c #1972C5",
"v. c #2976C6",
"b. c #3279C7",
"n. c #2976CC",
"m. c #857B82",
"M. c #AE6A88",
"N. c #D35186",
"B. c #EE5890",
"V. c #F46B98",
"C. c #F86CAD",
"Z. c #D06289",
"A. c #FF7CC5",
"S. c #3788B9",
"D. c #53878E",
"F. c #788785",
"G. c #718D93",
"H. c #5790AE",
"J. c #6F8FAA",
"K. c #73A5AD",
"L. c #3186D2",
"P. c #3495E7",
"I. c #4B8ECC",
"U. c #6FA8D5",
"Y. c #66CEE7",
"T. c #898986",
"R. c #958C85",
"E. c #8B948A",
"W. c #999588",
"Q. c #899797",
"!. c #979796",
"~. c #8D8B96",
"^. c #A89886",
"/. c #B79787",
"(. c #A59C98",
"). c #AE918D",
"_. c #98A399",
"`. c #8FAB96",
"'. c #BBA78B",
"]. c #A7A498",
"[. c #B7A898",
"{. c #B2AF92",
"}. c #8898A8",
"|. c #9098B3",
" X c #A998A3",
".X c #99A5A9",
"XX c #8EA9B4",
"oX c #A8A9A5",
"OX c #B7ACA5",
"+X c #ACB1AB",
"@X c #B8B5A8",
"#X c #ACB7B8",
"$X c #B9BAB7",
"%X c #ADABB3",
"&X c #C9948A",
"*X c #C6A796",
"=X c #C7B59A",
"-X c #CCAF8E",
";X c #C6ABA6",
":X c #C7B9A8",
">X c #D8B9A8",
",X c #C5BAB6",
"<X c #D4B4AF",
"1X c #E8B9AD",
"2X c #E69DA6",
"3X c #BAC0B6",
"4X c #B2CA90",
"5X c #D3D18E",
"6X c #EBD58F",
"7X c #EFF091",
"8X c #C7C4B9",
"9X c #D7C7B7",
"0X c #D8D3BA",
"qX c #D6C7AB",
"wX c #E6CEB3",
"eX c #F5F6A8",
"rX c #F3EEAF",
"tX c #D5E8AA",
"yX c #88B5D2",
"uX c #ADBACC",
"iX c #E4B0C7",
"pX c #B7C5CC",
"aX c #91D9EC",
"sX c #9EE3E7",
"dX c #C8C8C6",
"fX c #D6CBC6",
"gX c #D9D6C9",
"hX c #CCD3D4",
"jX c #D4D4D5",
"kX c #D5D6DA",
"lX c #D6DADC",
"zX c #DADBDC",
"xX c #DAD9D4",
"cX c #CDCFD0",
"vX c #E8D8C7",
"bX c #E4DED7",
"nX c #EDD3CB",
"mX c #DDE2DB",
"MX c #E8E5D8",
"NX c #F6EAD8",
"BX c #F5EDD4",
"VX c #DCDEE2",
"CX c #D4DBE0",
"ZX c #E7DCE3",
"AX c #DEE1E4",
"SX c #DDE7E7",
"DX c #D7F5F9",
"FX c #E2E4E4",
"GX c #E9E9E7",
"HX c #F3EEE5",
"JX c #EEF2E6",
"KX c #F5F3E9",
"LX c #FBFBF5",
"PX c #FEFEFE",
"IX c #FEFEFC",
"UX c #F5F5F3",
/* pixels */
"@XOX$X+XoX_.~ F.~ V v r w r i u i h m !.M r v r w r u i h i u u n Q.v F.M i n B B M M M ~ h X.1X6X..| ,XfXMXHXHXNXNXMXMXJXKXLXLX",
"fXdX8X$X$X+XoX+X.X.X!.T.F.V V C N N N !.B g M v i v M N N M n v V E.B F.n v i N F.V T.E.!.(.:XqXwX=XfXKXJXNXMXMXMXHXHXLXLXIXIXLX",
"GXGXzXxXxXdXdX,X$X$X+X+X+XoXoXoX].(.!.oXT.B ~ V M M V } V N M M V Q.B V V T.V +XgXbXMXMXJXJXHXBX9X8XmXGXGXKXKXLXIXIXIXIXIXPXPXLX",
"VXFXVXAXAXbXMXbXxXjXcXdX8X$X$X$X$X$X$X$X+XoXoXoXoXoXoXoX+XoXoXoXoX+X_.oXoX+X+XdXHXHXNXBXHXJXJXKXbXgXKXIXIXPXPXLXPXPXPXPXPXPXPXLX",
"zXzXzXlXkXlXVXVXFXFXFXVXVXVXVXVXkXkXjXjXdXdXdX3X$X$X$X$X$X$X$X$XdX8XcX$X$X8X8XdXGXUXLXIXLXPXPXPXGXjXJXLXPXPXPXPXPXPXPXPXPXPXIXLX",
"jXkXzXzXlXCXlXCXlXCXAXVXVXAXAXFXFXFXFXFXFXGXFXAXmXAXFXFXzXzXzXMXxXMXHXHXzXMXFXxXGXPXIXIXPXPXPXPXMXGXKXHXLXPXIXPXPXPXPXPXPXIXLXLX",
"zXxXzXlXkXkXlXlXlXzXAXzXlXzXzXAXFXAXAXAXFXFXFXFXAXFXFXGXFXmXmXMXxXgXOX,XGXGXzXAXzXLXLXLXIXPXIXIXMXIXLXJXKXIXPXPXIXPXPXPXPXPXIXLX",
"kXjXkXlXkXkXkXjXlXlXVXVXlXlXlXVXAXVXVXAXFXFXFXFXVXVXAXFXSXVXzXzX@Xj : j bXJXAXlXcXFXPXPXPXPXPXUXMXLXPXPXJXJXLXPXPXPXPXPXPXLXLXLX",
"jXjXkXkXjXkXkXjXkXlXlXVXkXlXzXlXVXAXlXVXAXAXAXAXVXVXAXFXAXjXcXoXt # O $ T.MXJXbXjXkXUXIXPXPXPXUXGXIXPXPXLXKXJXIXPXPXPXPXPXPXUXLX",
"xXjXjXkXkXkXkXkXjXkXlXVXlXkXhXVXVXAXlXVXAXAXAXAXVXVXAXzXcXoXe & @ e d @ . } NXNXkXdXAXIXIXPXPXJXFXIXPXPXPXLXKXGXIXIXIXPXPXIXUXLX",
"jXjXxXkXkXkXxXkXkXkXkXkXjXkXhXjXlXAXlXkXVXAXAXlXVXAXAXjXoX& . > P T ).| * * [.NXzXhXhXJXIXPXPXGXGXPXPXPXPXPXLXJXJXIXIXPXPXLXUXPX",
"xXxXxXxXkXxXxXkXkXjXlXVXjXjXkXjXlXAXlXlXVXAXAXVXCXAXzX,X} o j /./.*X;X/.X.1 U 0XJXcXcXzXLXPXPXzXGXPXPXPXPXPXPXLXHXHXLXPXPXLXPXIX",
"VXzXzXVXVXlXlXVXVXlXkXlXlXhXkXkXkXVXlXkXlXVXVXCXVXAXjX[.l 1 X./.[.*X'././.K s =XNXzXcXcXGXPXPXFXUXPXPXPXPXLXPXIXIXUXKXLXLXJXMXbX",
"oX+X$XdXcXkXkXkXkXFXVXlXAXlXkXkXlXAXlXlXlXzXVXlXCXkXdX^.a K /.+.)./././.O.{ l O.vXGXkXcXzXLXLXMXIXIXIXIXIXLXUXJXMXgXgX0X8X@X^.^.",
"h m m N V T.E.].].].$X$XdXdXcXkXkXzXzXzXFXFXFXAXAXGX,XT s U +.o./././.X.O...K U wXMXcXcXdXMXMX8XxXxXgX8X8X@X{.].^.].MXBX].|  . .",
"h d h h h h ].JX$Xn h N V } T.E.!.].oX+X$X$X$X3XpXdX[.P s ..X./././././.O.O.U U =XNX+X} } N } ^.{.^.W.N l l k [ I j Y N h h i i ",
"w t t w r t m ].} e h d w r w i W.!.W.^.N n n h g I ].j s O./.&X/.+.+.X.T T T L [.BX^.w w w h 9X].W.W.r r t t N m e : : w w : : ",
"+ + O O O X X X X # R.n O O O t W.T.W.9Xd # w : # h (.a K | t t P X.X.l > e K U | wX:Xd h h N ].i g W.n i i n m h m } V u d d h ",
"@ # + O + # & : # # e t w r w M R.O t 8XY h V V V R.| s s s a > s X.X.s j Y | U j 0X0XR.W.N } (.u i !.V n n M M n n oXfXY i i d ",
"t e n Y t w i d n V n N n n h Y !.O w 8XW.h } R.} W.| a L U j f s o.X.a e e P o.> ;X9X| h m } oXz z !.d i i u i u w T.@Xn w w $ ",
"> t d Y m d : & i n h d N W.n j !.# y 8XR.N N n n } R.& K a & : s /./.s > > K X.& I 0X[.R.(.} oXz v (.: # & # # + # # & @ @ $ O ",
"@ h & @ d I d d e & : > t R.R.R.!.4 y dX} W.:Xh & ^.Y * L K j a K *X*XP s K U /.> a :XqXOX| N $Xb B OX} t & w e t d } ^.:Xt O $ ",
"> m j e j Y | N l k k t > : I 0XoX7 p dXR.d ^.:X[ ^.t . L ..L R o.=X>X/.R R X.-Xe > [.0XI & Y uXb F.MXMXj e k { k [ MXBX0Xa @ e ",
"<X^.| I | OXKXBX[.I | | j > ^.BX8X7 p cXR.> P :XNXT e + L o.X.+.+.=X>X/.o.&X+.-Xa > ^.wXm e | dXD.F.8X].j [.0X-X#.] W.n e k [ { ",
"9X^.[.^.| | [.@X .k [ gXNXW.N :X,Xp x fX[.N | X.R.Y a + s o.o.@.o.*X*X/.R R o.*X1 s /.vX^.qX(.pXk./ 0X9Xj {.wX5X*.#.O.] '.5X5XtX",
"I O.wXBX0X{ k , <  .:X .^.l j 9X,Xp p dX@X9X[.U d | a * K X.o.R U U L K U U @./.s l '.wX@XOXOXuXb G.,XN [ 5XeXeX=.*.6XrXeXeX7XeX",
"j /.'.{.5X[ l ; ; , l t * o : j $Xz x dXgXgX9X*X[.^.s > s X.....X.U U X.U U X./.s { =XwXvX:X,X$XQ..X,Xh k 5XeXeX7X*.7XeXeXeX7X*.",
"T s , @ o l  .; < , , , ; @ X : +X~.~.$XHXNXbX9XNX:XP > * U X...U U K K s U *XX.K { *XvXKXNXbXuX.X_.@XN k 5X7X7X7X7X6XeX5X*.5X*.",
"L @ . . a O.{ 2 l {.[ , , @ X @ oX~.l.$XHXHXvX9XNX9XI a > P +.L s f f f U U *X..L O.=XvXNXMXxXpXC Q.,XN k #.7X7X7X*.*.eX7X$.$.*.",
"*X1 o o { /.1 ; < =X^., t @ o : $Xl.z cXHXKXbX9XNX9XI a * a o...X.U W U X.X./.L U O.*XvXHXgXgXkX.X3XxXW.m O.#.*.#.*.#.5X7X#.$.%.",
"[.k a o ; l 1 ; ;  .[ l I t h > $X#X%XxXxXvX9XOX:X=X^.a > > P X.@.R U R { '.O.s ..@.=XNX8XR.8XzXVXmX0X].R.R.l ] ] #.#.] ] #.-X-X",
"O * a X o ; @ X - l a l X.a ^.P %XFXhXVX(.* a | *X:X^.a s > s X.@.+.&Xo.O.'.U K U O.qXNX@Xh OXzXZXmX%Xw t l ] k ] #.#.$.2 #.5XqX",
"    $ + > t > @ * , t : , : N k +XkXdXhX8X: o j W.=XO.t + o s Y X./.*X/./.O.k a K &XwXBX:XY pX%X+XdX!.# # : k r l $.1 $.#.[ { #.",
"      O & 1 j > ; @ : o : : w t T.%X(.oXMXm O d I '.R.8 % * P R T X.U P | T K . 4 ^.wXNXdXT.dXN } Y } T.T.V N d a ] > ] l & w t ",
"& X % O > t e h > > & : i i i d a C } V jXV # P ].J.I.>.4 K U { U k K j I U T a 3 k.J.jXNX:X+Xg B n t e d V !.].].[.R.[ t # O # ",
"$ X O X @ e e j d h i w w w # : w M N T.@X{.} H.I.L.v.3.0 n o.O.X.[ P I U { R.K q j.L.U.HXvX.XG.XXJ.v t e w w t V W.].@X@X| n [ ",
"  X + + # r i h i d #   $ w - w C ;X8X<X}.H.XXL.P.P.h.8.9 z +.).X.X.| | X.O.W.j 9 z.I.S.pXGXdX.XuXuX}.M m Y V t u h i i } @XfXqX",
"= Z Z D f r # 8 t [ X   $ w p y Y fXgXpXI.P.H.n 0 5 3 1.,.0 R.-X*X+.^.+.).^.+.k.8.q >.L.I.U.yXuXuXuX|.y t i R.W._.T.n $ y ~ jXrX",
"f S S S = $ O 8 h  .e $ $ w y y j fXjXI.L.v.H.wXz 3 3 5.8.:.k.-X>X=X'.*X;X[.!.q 5 % % % 3 :.L.P.yXpX.Xi y w : e V ].R.d V u !.0X",
"  = S S = $ # w d h t $ $ : i i n 9XyXc.L.n.j.vXXXq.,.>.<.5.2.(.wX9X>XqX>X;Xk.3 3 3 3 3 3 3.f.n.P.U.XXc i i - # u i d n ].!.R.9X",
"  = S S 6 i t d i r t O O y i h h :XU.c.f.b.d.gX#X0.i.1.9 p.1.z.wX1XwX>XqXl.5 0 9 :.:.:.,.p.s.f.b.P.|.i C C M r g C w # i N R.$X",
"  = A A F i 8 w r u u # $ # d P m =Xh.b.n.e.g.dXdX<.s.i.>.5.p.5.OXwXqX>X[.6.5 3.>.3.>.5.1.p.a.g.f.L.J.n z M _.!.M N i w i : u c ",
"  = A A Z w - w t u n V r # i m N ).v.p.b.<.1.dXbXp.d.d.u.3.y.e.G.wX:X>Xl.>.9 <.5.4.4.y.4.p.u.a.h.b.I.V n n m !.oX_.n w i t r w ",
"- = Z Z 6 - : : i B !.B f N.M.W.O.m.n.y.i.w.2.#XNXh.r.a.f.4.>.y.j.>X>XoX1.:.5.7.y.y.y.y.4.y.u.a.j.f.I.+XE.M n M T.+X_.i T.T.B B ",
"* f j t v v y g Q.oX~ t F J V.1XqX|.n.d.1.s.2.XXNXz.d.j.d.s.>.:.r.(.>Xk.2.9 y.8.y.p.u.y.<.8.y.i.e.a.I.#X.XB B ~ M V ^ ~ ,XOX .E.",
"Y } N k g ^ V B _.l.v a H H &X2XwXuXd.n.8.y.1.K.BXI.d.j.a.d.y.9 1.J.'.w.>.,.y.4.y.i.y.y.<.<.y.y.a.f.b.XX.XB M V M m T ).,XwX6X*X",
"V W.^.U R..XQ.n m v B f H Q E Z.1XK.a.v.u.<.<.J.BXJ.r.j.s.a.i.5.5 9.G.0.6.e.y.p.y.i.u.y.<.1.4.y.u.p.L.J.W. .U I } E E M.gX9X>XOX",
"Y W.W.} #XpX+Xn i i n K F ! Q ! 1XU.r.g.v.4.q.J.BXJ.r.L.d.i.a.e.9 0 8.>.>.r.y.e.p.i.u.y.<.1.4.y.i.j.t.|.-X-X&.@XyXE E.J.fXMXfX;X",
"T.!.R.R.pXhX$Xv d m L s H B.Z.;XnXI.e.p.f.y.1.J.BXXXq.j.f.s.a.u.5.:.:.p.h.e.i.i.a.i.u.e.y.>.>.e.u.d.a.|.6X&.%.4XsX[.Q.G.[.HXgX,X",
"~.E.R.m.+XpX!.Q._.R.h a F ! iX(.,XI.d.w.f.e.2.k.BXXXq.p.g.f.f.u.4.1.1.y.i.a.a.i.a.i.i.e.y.>.>.e.y.p.c.H.1X/.E ..4X_.G./ [ MXmXfX",
"T.T.V ~..X$X!.].OX~.} O.! J ZX^ !.L.d.w.e.a.2.k.BXXXr.i.a.d.f.i.y.4.y.<.u.a.a.i.a.i.i.u.y.:.>.e.a.s.v.S.sXsXyXJ.J.^ v b b pXSXxX",
"E.T.E..X#X#XY m U C W.%.&XQ 2XY }.b.b.s.8.a.1.9.BXuXv.f.g.d.f.f.i.0.p.<.y.i.i.a.a.a.i.u.y.:.>.y.e.s.g.S.Y.Y.Y.aXY.F.M D.H.XXMXhX",
"!.!. X%XdX.XN d N n X.&XiXZ.B.iXuXv.r.i.4.w.0.9.NXpXd.b.g.v.d.f.i.0.y.<.y.i.u.a.a.a.a.i.y.:.>.y.7.p.h.b.P.Y.Y.aXsXyXF.J.K.K.SXDX",
"(.T ).%X%XN n m E Z.C.C.C.Q J 2X|.t.d.f.0.0.w.9.MXpXr.v.g.v.s.f.s.e.u.0.<.j.a.d.a.a.a.i.y.9 >.p.d.a.s.v.yXDXsXsXsXaXG.D.H.K.pXJX",
"oXc  X,X).f c E V.C.A.C.B.J J V.x.r.f.e.d.7.w.:.vXcXd.n.f.d.f.v.s.u.a.u.<.j.s.a.d.d.a.a.p.9 >.p.e.p.d.g.U.sXaXaXaXaXE.b D.D.XXGX",
"Y P  X$Xm 6 E B.B.V.V.Q H H H B.x.r.b.g.d.1.1.9 fXjXd.v.f.d.h.d.s.e.a.s.<.p.a.d.g.d.a.a.p.9 >.y.p.e.i.f.I.tXtXtXtX0X5X/ u q / hX",
"c m. X Xp 6 Q Z.B.B.B.N.N.N.H Q L.c.s.g.e.5.3.2.hXgXg.n.g.d.g.s.i.i.u.y.<.y.i.a.r.s.g.u.u.9 3.y.y.u.p.d.S.6X7X=.=.=.=.=.%.N 8 +X",
"c m.%Xm.& f F Q N.N.B.C.V.V.B.M.b.v.s.f.r.4.>.2.$XvXh.v.f.a.a.a.a.u.y.y.1.4.y.a.i.i.a.f.e.5 5.r.<.y.8.f.c.{.;.` ` ` &.-.-.*.[ [ ",
"n ~.%Xd & f F F G G G Q Q Q B.M.r.d.w.u.a.e.>.2.#XvXj.i.s.i.y.a.i.u.i.j.8.4.y.y.y.i.y.r.e.5 0.<.z.9.<.f.r.K.-.` _ ` ` -.-.=.%.k ",
"B  X~.w f W 6 Z D D F F F F G W v.f.u.w.s.e.5.2.}.wXj.8.w.i.8.u.i.i.s.j.<.1.4.y.0.y.y.y.p.9 >.~.;X3.j.p.q.J.7XeXBXrX7XeX6X6X*./ ",
"V .XB c M.c p e 6 6 Z D D f P l.n.f.f.y.y.e.4.2.J.vXz.<.w.y.5.8.e.a.h.h.y.4.4.<.e.8.5.3.1.5 G.*XP !.<Xl.c.K.-.*.6XrX=.=.-.` &.'.",
"~.XXV ).l.b b v z z n C l.G.Q.I.n.v.t.a.e.u.<.5 k.fXz.<.y.<.,.8.<.y.u.y.>.>.1.1.1.1.>.3.9 x ;Xo.<X*X&X}.c.E.' _ ' ' _ _ _ ) $.OX",
".X!. XG.l.F.G.F.~.G.Q.Q.}.XX#XI.v.n.n.L.d.a.<.3 4 :XJ.<.4.4.5.3.5.1.4.8.,.,.3.>.3.3.,.9 5 X./.<X[./.;XJ.n.J.` _ _ ' ' ) ) ( [ E.",
".XOXE.D.G.G.G.}.}.}.Q..X%X.X#XL.c.L.L.P.L.a.y.4 l.[.Q.0.8.4.1.3.5.>.>.5.,.,.3.3.,.9 3.0 z +.(./.;X<X!.e.d.I.[ ( ( ( ( L K k ^ E."
};
