/* XPM */
static char *_84f6ac84a4946afbac795404c71a86dq7NFeJorOyjTlcOB[] = {
/* columns rows colors chars-per-pixel */
"64 64 256 2 ",
"   c #0B171E",
".  c #0F1618",
"X  c #0E1A23",
"o  c #0C1927",
"O  c #131C25",
"+  c #141E29",
"@  c #1C1D24",
"#  c #131E33",
"$  c #14212B",
"%  c #1A242C",
"&  c #1D2528",
"*  c #1B2634",
"=  c #0F2435",
"-  c #272729",
";  c #242B35",
":  c #2B343A",
">  c #3C3C3C",
",  c #373836",
"<  c #33332C",
"1  c #28241D",
"2  c #433E39",
"3  c #4B392D",
"4  c #3E4631",
"5  c #44423D",
"6  c #49463A",
"7  c #564A3C",
"8  c #4F5436",
"9  c #6B6D3D",
"0  c #60563B",
"q  c #383C43",
"w  c #293241",
"e  c #423C44",
"r  c #3C4547",
"t  c #3C5453",
"y  c #326571",
"u  c #2D5D73",
"i  c #434443",
"p  c #4B4A46",
"a  c #444A4A",
"s  c #4C4C4B",
"d  c #464647",
"f  c #524B44",
"g  c #524E4B",
"h  c #584C48",
"j  c #4C5449",
"k  c #53524C",
"l  c #595649",
"z  c #444D53",
"x  c #4C5353",
"c  c #4A5858",
"v  c #545553",
"b  c #5B5B55",
"n  c #5C5C5B",
"m  c #565857",
"M  c #574B5A",
"N  c #65584A",
"B  c #635C53",
"V  c #665C58",
"C  c #695549",
"Z  c #5B625A",
"A  c #4F6152",
"S  c #69644A",
"D  c #76684B",
"F  c #63635C",
"G  c #6C645B",
"H  c #696557",
"J  c #76685B",
"K  c #79755A",
"L  c #73794D",
"P  c #545D63",
"I  c #5A6565",
"U  c #526D73",
"Y  c #646463",
"T  c #6B6A64",
"R  c #6B6C6B",
"E  c #666968",
"W  c #746C62",
"Q  c #766B66",
"!  c #6A736A",
"~  c #73736C",
"^  c #7B746B",
"/  c #797667",
"(  c #696C74",
")  c #6B7676",
"_  c #747574",
"`  c #7B7B74",
"'  c #757A7B",
"]  c #7B7C7B",
"[  c #747777",
"{  c #746C74",
"}  c #615F60",
"|  c #A96D2F",
" . c #935A2D",
".. c #B35C4E",
"X. c #85695C",
"o. c #87765D",
"O. c #907852",
"+. c #B07053",
"@. c #866C63",
"#. c #877668",
"$. c #947868",
"%. c #837C73",
"&. c #8A7C75",
"*. c #967D73",
"=. c #9A6A5E",
"-. c #D37A69",
";. c #C7764E",
":. c #933B2F",
">. c #79817A",
",. c #74826F",
"<. c #678B6A",
"1. c #7B873B",
"2. c #CB9335",
"3. c #DAA839",
"4. c #97856A",
"5. c #89847A",
"6. c #9B8375",
"7. c #968679",
"8. c #9B957B",
"9. c #928B67",
"0. c #A6887A",
"q. c #AF9375",
"w. c #AAA47A",
"e. c #9E8F5A",
"r. c #D29253",
"t. c #D8886C",
"y. c #D5B078",
"u. c #DFAB59",
"i. c #B68237",
"p. c #2D7585",
"a. c #787D83",
"s. c #697B88",
"d. c #517988",
"f. c #867E80",
"g. c #3991A9",
"h. c #338998",
"j. c #578691",
"k. c #7C8384",
"l. c #7D868A",
"z. c #768487",
"x. c #698A94",
"c. c #7A9798",
"v. c #6B8F90",
"b. c #5498B1",
"n. c #7295A4",
"m. c #50A0B7",
"M. c #54ACD0",
"N. c #6EB5CF",
"B. c #5EB0DA",
"V. c #73CCEB",
"C. c #6AC7E2",
"Z. c #838484",
"A. c #848A84",
"S. c #848B8B",
"D. c #8B8C8B",
"F. c #888786",
"G. c #968C84",
"H. c #8B9289",
"J. c #97948A",
"K. c #858D93",
"L. c #898C94",
"P. c #8B9394",
"I. c #8B949A",
"U. c #899699",
"Y. c #949593",
"T. c #939A9C",
"R. c #9C9D9C",
"E. c #979896",
"W. c #928E93",
"Q. c #A38C83",
"!. c #AC8C81",
"~. c #A79688",
"^. c #B29789",
"/. c #A69C96",
"(. c #B69B93",
"). c #B28E82",
"_. c #9AA39C",
"`. c #92A597",
"'. c #ABA58A",
"]. c #A6A49A",
"[. c #B7A998",
"{. c #B7AF8E",
"}. c #939CA3",
"|. c #9A9CA4",
" X c #8C99A1",
".X c #9AA5A7",
"XX c #9BACB7",
"oX c #8DABB2",
"OX c #A3A5A4",
"+X c #A3ABAB",
"@X c #A8A9A7",
"#X c #B4ACA6",
"$X c #A8B4AA",
"%X c #B8B5A9",
"&X c #A5ACB4",
"*X c #AAB5B7",
"=X c #BBBCBB",
"-X c #B6B8B7",
";X c #B9AFB0",
":X c #A79EA2",
">X c #CAB193",
",X c #E5B18C",
"<X c #C6B8AA",
"1X c #C5BDB3",
"2X c #D3BCAC",
"3X c #CA9E86",
"4X c #BBC3BC",
"5X c #B2C7BA",
"6X c #D7C499",
"7X c #E5C38A",
"8X c #C8C5B9",
"9X c #D5C9B8",
"0X c #D2C9B0",
"qX c #E9D5B8",
"wX c #E3CFB2",
"eX c #A9B9C4",
"rX c #B3BCC3",
"tX c #B8BAC4",
"yX c #B3BDD2",
"uX c #C5BEC5",
"iX c #BDC5CB",
"pX c #BEC9CD",
"aX c #BAC4C5",
"sX c #BAC7D5",
"dX c #AAC5CC",
"fX c #9EC7DF",
"gX c #C2C6CA",
"hX c #C2CACD",
"jX c #CACDCC",
"kX c #C5C6C3",
"lX c #D2CCC5",
"zX c #C9D2CC",
"xX c #D9D6CA",
"cX c #C4CDD2",
"vX c #C9CED2",
"bX c #C5CCD5",
"nX c #CBD2D5",
"mX c #C9D3D8",
"MX c #D3D5D3",
"NX c #DCDCDB",
"BX c #D7D9D8",
"VX c #E6D7C6",
"CX c #E4DED5",
"ZX c #E2CFC0",
"AX c #E4E3DB",
"SX c #EAE5D9",
"DX c #F3EBDC",
"FX c #F7F1DE",
"GX c #F1E2CD",
"HX c #D7E2E6",
"JX c #E9E9E5",
"KX c #F4EEE2",
"LX c #FAF4E3",
"PX c #F9F6E7",
"IX c #F9F8F3",
"UX c #DCDCE2",
/* pixels */
"hXcXcXcXcXcXcXnXnXnXcXcXgXrXrX*X*X+X+X+XT.I.K.S.S.l.l.S.S.k.k.k.K.l.k.a.a.z.k.k.l.l.l.l.K.Y.E.].[.[.[.#X%X].#X8X8X8X-X=XvXnXnXmX",
"hXhXcXcXcXcXcXcXcXnXnXmXmXnXmXbXbXcXhXiXtX*X*X&X.X.X}.}.T.T.T.T..XT.Y.Y.P.K.P.P.I.T.T.}..X+X*X-X8XlXxXCXxX8X8XAXSXSXNXMXNXNXBXBX",
"hXhXcXcXcXhXhXcXcXnXnXnXnXcXmXbXbXnXnXnXmXmXcXcXhXhXiXaXrXrXaXaXaX-X-XkX=X*X*X*X*X*X-XrXtXiXhXMXAXDXPXLXPXAXxXPXKXKXSXAXNXBXmXBX",
"gXhXhXhXhXhXhXhXhXvXcXcXcXcXcXcXgXMXnXcXmXmXbXnXmXmXmXmXnXnXmXmXmXvXBXJXBXcXbXbXcXbXbXbXbXvXnXNXAXKXLXLXPXAXxXSXDXKXKXSXAXBXnXnX",
"pXgXhXhXhXhXhXhXhXvXcXcXbXcXgXhXMXAXNXjXcXcXcXcXcXmXmXnXbXbXmXmXmXvXNXJXBXbXbXbXbXbXbXbXbXbXnXBXNXSXFXLXPXSXlXAXKXLXLXKXAXNXMXnX",
"pXgXgXgXgXhXhXhXhXvXcXcXcXhXaXhXAXKXAXjXhXcXhXhXcXcXbXcXcXcXcXmXbXnXNXNXvXpXcXcXcXcXpXcXcXcXvXMXBXAXFXPXPXSXlXAXKXKXLXLXSXBXnXcX",
"hXpXgXgXgXhXhXhXhXhXhXhXcXhXkXBXFXLXAXjXhXcXhXgXcXcXcXcXcXcXcXmXnXBXNXBXhXpXcXpXcXhXpXpXcXhXjXMXBXAXDXLXPXSXlXCXDXDXLXLXSXMXvXbX",
"hXhXgXgXgXhXhXgXhXhXhXhXhXgXjXAXFXDXxXkXhXbXcXhXhXhXcXcXcXhXcXbXzXBXNXvXgXpXpXiXpXpXiXpXhXgXjXMXBXNXDXPXPXKXlXCXDXDXLXLXAXjXhXbX",
"=XtXaXiXgXpXcXcXhXcXhXhXhXkXlXDXDXSXMXkXhXhXcXhXhXiXmXbXpXbXbXpXvXvXMXMXgXpXpXiXsXpXpXaXhXjXjXMXMXBXDXPXPXKXxXBXDXDXKXLXAXjXhXhX",
"Z.Y.R.OX+X*X-X-XaXgXnXcXgXjXCXDXSXxXlXhXhXcXcXhXhXcXiXcXnXgXnXMXvXBXBXMXcXpXpXpXiXpXiXiXvXjXjXjXNXxXAXLXPXKXlXlXSXSXAXAXNXhXhXhX",
"v V F T ` E.=X%X_._.@X*X-XjXCXCXVXxXMXnXcXcXnXhXcXcXnXBXY.` 5./.-XAXJXMXnXcXaXhXiXpXpXhXnXnXvXMXNXxXSXPXPXDXMXMXAXNXMXMXnXhXhXbX",
"k k k k b ].NX%XT ~ _ ` D.E.#X#X8X8XkXkXaXiXiXiXhXhXBXk.s v V W W G.BXBXmXbXvXhXcXcXhXnXnXnXjXnXMXxXAXFXPXSXkXkXjX4X4X=X=X-X&X&X",
", , 2 5 5 _ ].5.l W F p v v T ` 5.D.H.D.P.T.T.OX+X-Xa.a c d v R %.5.` kXcXaXaX=XtX=X=XgXaXaX=X-X=X8X8XxXAX8X].OX=X4XOXD.D.F.] ' ",
"5 2 , , < , > < l ^ F , > > k T Y 5.F.n v b b n E E d r q q q q i V b b |.Y.S.D.D.D.S.D.Z.Y.Y.F.Z.] ` 5.5.` E ' kXMXD.n n m n m ",
"f V B 5 5 g p i k F b i p p n Y d _ D.n k b F b v s q q z q q q i q p s R m v v v v v v m F.H._ E m i i s F F b E.OXR p s d s d ",
"N W ^ B g g p v m v b n V v E V < v ] Y R ~ ` ~ Y q r r q q q d a d Y E F Z Y E R R E Y b D.D.b E n v s s ~ _ k d i r > q i r > ",
"B l G H F g g M g k v W ^ G W Y , m 5.W ^ #.W ! } r i 2 q l J &.#.W s c d F ^ ] Z.%.%.W T ' I q Y Y n b n _ ~ ~ Y v s p 5 F b 2 ",
"@.C C J 7.%.G l N l B G @.&.5.R q n F.^ G.7.V p v r 5 l Q *.!.Q.^.Q.^ i i k Q { ^ ^ #.%.^ ] P r Y Y n I v ~ ` _ Y b s i d F V i ",
"6.X.G &.9XxX0X8.K K H 7 H %X9X5.q { Y.^ 7.~.G.G g > G *.Q.6.0.Q.Q.~.~.V q d T B l W 7.G.%.E.) t R n i k s b E Y s i > : > > p f ",
"[.[.~.5.9XxXxX'.D 8.8XJ./ 9XxX].e R /.J J ~.9X1Xk 2 7.0.0.!.0.Q.Q.^.^.W e a V J J./.Q.7.^ R.z.U E.Y.b 2 p g k V ~ _ E r > - , f ",
"0XGX0X'.6X<X]./ 9 {.9X%X5.8XxX].M { /.G.7.0.0X1XB 5 G.!.Q.0.0.G.J.~.[.&.p q ~ [.8X1X7.V G OXz.) 8XlX%.H 5./ l G.9XNX=Xm < , i B ",
"6XqXwX>X6X0X9.D L 9.~.&.J [.9X#XM R ;X1X>XQ.*.7.f p G.#.#.*.6.@.V N #.7.g > %.<X[.].~.Q.G.R.) U 8XlX5.~.9X[.l J.xXxX%XH k B l G ",
"q.~.0.e.{.[.K L 9.D 7 7 h W [.<XR [ %XCXqX[.~.^.W , J C B Q 0.@.V W Q G.T 2 G.9XJ./.1XlX%XOX) U %X1X%.J.%X~.l H 8.8.7.9.8.'.#.J ",
"0 7 7 D 8.W l e.L o.J 7 6 6 J.8XW.F.kXDXGXqX9XVX/.2 ^ B f J ^.@.N h B 5.&.b lXKXAXSXKXKXJX-X( U @XE.B N H l l Z J ~.{.{.>XwX[.J.",
"3 - 6 *.^.0 S 8.8.9.9.0 4 , A.8X:XG.kXPXDXVXVXGX<Xl @.C C @.(.6.Q J $.[.~.C xXIXPXPXPXIXIXtXa.k.E.T B l j j l l #.~.{.w.w.0X0X%X",
"N , 6 @.4.8 9 w.'.9.9.S 8 , 5.1XJ.J.xXPXCXZXZXVX<XB ~.*.*.0.>X^.7.0.^.<X[.N NXIXPXPXKXPXKX=Xa.K./.^ V H H j j l S K K L 9.'.{.[.",
"D 6 5 h 0 4 8 w.w.o.8.#.K S ~.lX#X@XxXLXSXZXZXqX9XK (.^.Q.0.(.^.*.!.!.(.Q.G JXIXPXKXFXLXSX-Xa.K.OX&.B H Z j j 8 8 8 j l l H K 9.",
"C 7 2 2 6 6 8 9.9.D 6.#.4.o.~.xXSXxXxXSXVX2XwX0X9X7.0.).6.$.@.J $.0.0.^.*.#.KXPXKXFXDXDXSX=XY..X#X5.G F l j 8 8 4 4 b l 5 6 H K ",
"3 7 6 6 N N S o.o.D Q J #.o.~.xXDXSX9X1X[.[.2X>X<X~.0.0.6.$.X.J 6.6.*.~.Q.7.9X9XlX9X[.8XxXkXtXaX#X%.T H j 8 4 6 6 b / K S l H W ",
"3 6 6 f J H S D D S l N J J ~.8XxX9X1X[.7.7.Q.!.~.7.!.0.0.0.*.6.Q.0.6.0.~.7.(.~./.J.J J.=XuXjXgX/.] _ F 7 6 4 4 k G / 8.{.5.G / ",
"< , 5 f V V J N S H l b G V #.J.~./.#X/.5.5.&.6.W N *.0.*.*.$.#.@.#.6.7.&.Q 7.^.Q.&.l F.@X|.OXOXF.f.] m f f 6 5 b J S ~.9X'.#.5.",
", < , 5 7 B W B H b H b B h f b ^ J.%X/.^ ^ Q G f 1 J ~.J X.X.@.#.@.6.~.V h W 7.7.#.B F.W.( R ` R ' ' m g f 6 5 G 7.H 7.<X/.#.7.",
", , 2 i b ^ / J H B T m i i f &.[.<X9X].v n ( > 1 , ] Q.$.6.$.#.6.6.*.G.G l 2 g V G f Z.}.a.I x s b n n b v s i J 7.J ^ 5.G H ^ ",
"< 5 v V T ` B G G B T m k k Q <X9XZXVX@XR a.' > . i |.Q.$.0.0.0.0.0.*.~.5.R < < b l p S.&XXX}.) p e d v F Y E F V T E _ Y s v k ",
"p p k g F ^ f H / B G b F G &.0XqXVXVX;XS.K.( : @ , I.<X$.0.0.*.7.6.*.^./.Q - i G G l W.yXsXyX&X{ d i a k v E E R R R { E s x r ",
"2 5 5 5 b ` k F G H W G W W *.<XqXqXVX%XL.a.P - @ @ .X].$.6.$.@.*.7.7.~.lX~ - e V G V Y.sXsXsXyXL.} m x p p b s v ! _ ] ] Z s , ",
"> 5 g g b ^ l H G H W ^ ^ #.#.>XwXqXGX8XR.a.} , , OX|.C 6.#.X.Q @.#.7.7.#XE.- , 2 2 W @XsXsXsXrXS.E E c a s m d , x v ! ` ~ ~ F ",
"v k g k k T l H ~ W ` 5.%.#.#.[.wXqXVXlXOXa.E k ].-Xg C 0.#.J J @.#.6.7.&.%XY - p h 5.;XsXsXsX*XZ._ [ m > i v s d a > Y Y v R ] ",
"m s p p k F l T _ ` 5.5.` ^ #./.0XqXVX%XW.L.-XlX@X5., @.4.#.@.Q J 7.#.7./ /.jXD.> N /.1XiXsXsX&X] ' Z.R s a a i r x s R E > , x ",
"k s v s k b k ~ F.` %.^ %.G.5.8.[.<X8X-XgXUXUX#X;X&.@ Q 4.#.o.X.@.#.#.#./ ].=XIX=X&.~.;XrXeXeX}.' ! ] ' R I x a > a j Z _ F v a ",
"x Z Z m Z I m _ ,.R ~ ! J.0X{.A.A.-XBXmXmXcX-X-X1XI O W 6.O.X.@.@.$.#.*.J @X=XiXHXJX1X|.oXoXK.Z.[ ( ! R [ ' ` b 5 i i s n R ] ` ",
"H T H Z ! _ H #.#.Z G #.'.wX0XH.+XHXpXiXtXiXgXkX#X: % v 6.$.$.#.#.#.6.7.W @XtXhX&XhXJXcX Xc.z.E ' ' I x I ) S._ x x a r x I ! [ ",
"J / T ! k.F.W #.$.5.G.$.9.'.].c.rXiXrXiXeXaXkX-XJ.; ; : /.!.0.6.0.!.^.[.&./.;XcXtXrXcXBXHXoXx.) A.H.Y x c m ' ' E ) I Z Y ! Z m ",
"F ! E ) P.k.Z F =.%X<X@.b ) ) oXtXrXtX*XiXBX-X].F.; ; % %.^.0.).q.q.^.(.~./.;XaXhX.XiXrXBXmX Xx.l.H.R m c j T Q >.E.5./ 5.J.` b ",
"I I _ Y.$X[ z z D 3X,Xo.I s.c.yX*X*X-X-X-X@XR.J.S.@ ; % > ^.0.q.q.0.0.^.&./.@XgXBX+XXXiXaXmXdXn.x.( b c P c Z F l.$XY.,.,.J.H.~ ",
"c I J.8X%XY a c C ..;.o.s.x.eXrX*XR.R.OXD.` F.].( O * % @ V ^.).).0.^.&.p R.@X_. XI.I.eXeXgXpXoXx.) W I c c c x ) *X.XA.! ! ) ) ",
"c ~ ].9X].Z j Z D  ...6.x.x.$XOXOXR.E.F.Y.H.F.#Xc + * * % @ T Q.(.#X5.- > .XT.a.&X}.U..XXX*XpXXXU.[.{./ c c c r I .X*X`.>.E ) z.",
"I H.$X4XH.Z Z E J  .+./.n.v.Y..XE.S.P.' Y.D.H.@Xq   % % $ $   < g p @ + w .X|.E.OXXXU.T.|.XXXX$X].7X7Xe.F x x z a P.*X@XY.>.) ) ",
"! H.5X$X,.,.,.) %.*.(.@X`.U.Y.@XP.k.Z.Z.Y.F._.T.* $ $ $ % + % O X O % + : E.@XOXz..X}.P.T.|.T.*X{.y.y.e.! A j z t ) rX.XH.<.! E ",
"Y.OX$XH.>.5.` ] G./.;X4X4X_.H.OXk.Z.Z.Z.] F.OXk.$ $ % $ X % O + % % % $ : Y.OXT.K.}.}.P.T.K.U.*X'.r.e.O.) P z c c E .X*XH.! Z m ",
"8X8X4XH.5.G.].8X;XOX=XnXJX%X5._.k.[ k.F.D.Y.+XE O + + O + $ O O X O + O % D.OXI.U. X|.K.I.a.I.}.F.+.O.,.n.s.c z ! ~ P.*XT.[ I E ",
"9X8X$XA.Y.&XBXIXlX+X*XjXIX-X>._.S.[ P.E.Y.Y.R.c X $ $ + O X X O X O + * $ [ OX|.}.}..XK.I.a.}.T.f.X.D l.fXN.j.t ~ &.H.*XXXc.U s.",
"#X-XS.' $XhXBXJX8X@X=XuXAX@X` R.S.) Y.R.F.E.P.r O + + O X $   O X O O + X { OXP..X}.}.I.P.' T.}.7.L 9 c.V.V.N.j.I ^ F.*XeXoXj.U ",
".X.XI ' rXhXkXlX;X/.-XuXNXOX[ R.S.E T..XF.R.S.; + + X O + X X X X $ + o X E OXl.}. XI.I.P.k.L.S.z.<.1.v.B.C.V.C.j.c F .XdXoXx.U ",
"OXF.m a.tXtXtXtX@XE.@XhXUX@X_ Y.S.) OX.XD.S.) $ $ $ $ + X ; O X + O X $ X s D.)  X}.K.K.I.S.k.[ n.v.! b.B.C.V.C.B.U r z.eXXXc.s.",
"{.q.O.7.#X@X-XrX@X:X&XpXBX@X~ E.k.k.T.Y.S.S.P + % X $ +   l.; +   O $ o X x Y.( I.T.K.S.S.' [ [ oXm.j.N.fXV.V.fXC.j.r P XXeX Xj.",
"r.r.u.u.y.>X].&X#XR.+X*XtX@X` E.a.Z.E.P.] F.x o + : q O ; _.5.5 c % o $   r T.( +X+Xk.k.S.' ! [ XXM.m.oXC.C.C.B.M.b.U t P.eX}.*.",
"| i.2.2.3.u.q.5.D.S.S.K.P.OX` D.( Y.OXS.] D.: o * I.a.* ; _.4Xn Z w # X   : E.I +X&Xk.k.A.A.! >.XXg.g.m.m.m.M.M.m.b.n.U ' #X!.+.",
"| | | 2.3.2.O.I I I E I ) _.5.D._ ].R.k.' [ O # I +XP.w q _.kX+X, w + a s x Y.R .X-XP.T.S.S.! F.XXh.h.g.g.g.g.h.d.U c.F.$.+.....",
" . .| 2.u.i.S P P ' R.c.z.E.J.D.E.@XY.k.' z O $ I..X+XK.z.$X%Xq $ $ < w.8.a K.! ].-XS.T.T.k.E E..Xy p.p.p.p.h.z.*.-.q.3Xt.+.:.:.",
"N S O.q.y.q.J.c.v.OXMXaX.X_.J.D.Y.T.Y.[ E * $ X ( iX.Xl.z r c ; $ * F '.j w l.) E.aXP.l..Xk.R E.].y u y u U 7.-.-.-.t.u.u.r.:.:.",
">. X*XpXzXhXhXaX5X-X4X5X_._.G.H.OXS.' [ a X $ I iXU.S.: % q ; q   o X . q : a.s.T.-XT.) U.' >.Y..Xj.U U U 5.,Xy.t.-.;.r.2.|  ...",
"aXMXzX4XaX5X4XkXaXhX5XOXH.E.E.Y.OXT.S.R & $ o z c l.*X.Xc c I I ; r * o * * I.l.K.T.I.z..Xl.k.D..Xv.x.x.U 5.y.y.7X,X-.r.;.+.*.t.",
"mXzX1X#X.X}.`.`.*XaX5X4X%X].].J.Y.S.S.v O = * : z }.a.P.; w P ) m ; c ; * r >.k.z.&XeXU.eX}.' Y.:Xc.x.v.v.%.+.r.y.,X,X,X,XwX>X7X"
};
